<?xml version="1.0"?>
<svg width="64" height="64" xmlns="http://www.w3.org/2000/svg" xmlns:svg="http://www.w3.org/2000/svg">
 <defs>
  <clipPath id="a">
   <path d="m0,0l64,0l0,64l-64,0l0,-64z" fill="#fff" id="svg_1"/>
  </clipPath>
 </defs>
 <g class="layer">
  <title>Layer 1</title>
  <g clip-path="url(#a)" id="svg_2">
   <circle cx="32" cy="32" fill="#3b00ff" id="svg_3" r="32" stroke="#54d9ff"/>
   <path clip-rule="evenodd" d="m13,21.51l0,20.99l6.31,-0.04l0,-8.51c0.75,0 1.45,0.03 2.1,0.48c0.48,0.45 0.87,1 1.14,1.62l3.37,6.41l7.08,0c-1.4,-2.79 -2.53,-6.33 -4.95,-8.45a6.3,6.3 0 0 0 -1.64,-0.77a7.9,7.9 0 0 0 2.22,-0.83c1.76,-1.07 2.76,-3.03 2.71,-5.07a5.9,5.9 0 0 0 -0.94,-3.4c-1.47,-2.25 -4.47,-2.52 -6.93,-2.43l-10.47,0zm8.99,8.5l-2.66,0l0,-4.31l2.77,0c1.38,-0.14 3.08,0.48 2.98,2.1c0.07,1.76 -1.72,2.11 -3.09,2.21" fill="#3b00ff" fill-rule="evenodd" id="svg_4" stroke="#54d9ff"/>
   <path d="m39.48,35.09l-6.48,0.38c0.13,1.9 1,3.69 2.46,5.04q2.18,1.98 7.79,1.98c3.11,0.09 6.66,-0.68 8.57,-3.33a6.08,6.08 0 0 0 1.18,-3.6c0.02,-2.38 -1.57,-4.33 -3.7,-5.25a29.7,29.7 0 0 0 -6.38,-1.81a5.8,5.8 0 0 1 -2.28,-0.74c-0.74,-0.5 -0.56,-1.53 0.1,-2c1.87,-1.24 4.89,-0.21 5.12,2.14l6.43,-0.34c-0.12,-1.79 -1.1,-3.5 -2.65,-4.6a11.9,11.9 0 0 0 -6.44,-1.44a15.1,15.1 0 0 0 -5.43,0.79c-2.16,0.8 -3.94,2.75 -3.94,5.14c-0.04,1.49 0.69,2.96 1.93,3.91a15.6,15.6 0 0 0 6.38,2.44a9,9 0 0 1 3.48,1.22c0.97,0.71 0.96,2.15 -0.02,2.87c-1.09,0.76 -2.7,0.85 -3.92,0.36c-1.31,-0.53 -2.08,-1.77 -2.2,-3.16" fill="#3b00ff" id="svg_5" stroke="#54d9ff"/>
  </g>
 </g>
</svg>