<?xml version="1.0"?>
<svg width="1280" height="916" xmlns="http://www.w3.org/2000/svg" xmlns:svg="http://www.w3.org/2000/svg" preserveAspectRatio="xMidYMid meet" version="1.0">
 <metadata>Created by potrace 1.15, written by Peter Selinger 2001-2017</metadata>
 <g class="layer">
  <title>Layer 1</title>
  <g fill="#000000" id="svg_1" transform="matrix(0.1 0 0 -0.1 0 0)">
   <path d="m7495,-15c-786,-41 -1262,-142 -1451,-308c-60,-53 -69,-77 -89,-228c-41,-319 -146,-555 -331,-749c-194,-203 -486,-345 -834,-405c-204,-35 -639,-64 -739,-48l-54,8l-13,62c-21,105 -46,147 -113,197c-114,83 -68,79 -783,73c-639,-5 -806,-13 -1113,-53c-161,-20 -217,-36 -281,-78c-81,-54 -102,-92 -114,-209c-5,-54 -14,-107 -20,-117c-12,-23 -21,-25 -272,-55c-427,-51 -657,-122 -794,-248c-65,-59 -95,-120 -134,-270c-47,-180 -77,-419 -110,-887c-6,-74 -12,-153 -15,-175c-5,-39 -20,-262 -50,-720c-24,-354 -46,-827 -41,-842c5,-11 378,-13 2255,-13c1508,0 2252,3 2256,10c4,6 15,60 25,120c220,1259 1127,2266 2360,2619c271,78 399,97 830,124c61,4 471,-19 510,-29c14,-3 63,-12 110,-20c226,-37 539,-125 685,-194c11,-5 43,-19 70,-31c127,-55 251,-119 381,-196c814,-487 1391,-1321 1549,-2243c9,-52 20,-102 24,-110c7,-13 107,-15 792,-18c430,-1 786,1 790,5c16,17 -25,835 -62,1228c-64,688 -174,1186 -308,1392c-121,186 -480,399 -908,537c-61,19 -210,60 -330,90c-245,61 -339,92 -433,143c-253,139 -421,340 -510,613c-42,129 -60,235 -69,415c-7,132 -12,167 -29,201c-93,182 -505,319 -1142,378c-420,40 -1070,53 -1495,31zm4080,-2459c124,-62 201,-165 226,-308c22,-125 -28,-267 -127,-358c-70,-63 -118,-87 -212,-106c-192,-37 -382,75 -457,271c-14,36 -20,75 -19,140c0,83 3,96 37,166c77,161 217,243 395,235c72,-3 95,-9 157,-40z" fill="#ff7f00" id="svg_2" transform="matrix(1 0 0 1 0 0)"/>
   <path d="m7770,-2757c-437,-42 -694,-110 -1024,-268c-742,-355 -1291,-1030 -1486,-1829c-58,-237 -74,-376 -75,-651c0,-350 33,-564 135,-876c224,-683 721,-1260 1375,-1596c240,-123 536,-217 839,-265c189,-30 605,-33 786,-5c701,110 1291,436 1728,957c694,828 845,1960 392,2945c-75,164 -201,369 -329,535c-83,109 -361,387 -471,472c-300,231 -660,409 -1008,497c-268,69 -645,106 -862,84zm-615,-1372c176,-46 378,-170 510,-314c65,-71 173,-225 227,-326c40,-73 54,-68 116,42c169,298 413,500 697,577c114,31 313,38 426,16c309,-63 572,-286 709,-604c68,-158 104,-324 116,-529c20,-348 -93,-625 -357,-878c-116,-111 -221,-190 -443,-331c-436,-278 -569,-378 -790,-593c-159,-156 -260,-273 -346,-401c-41,-61 -67,-90 -80,-90c-13,0 -39,31 -82,97c-156,238 -422,501 -703,695c-44,30 -181,117 -305,193c-355,219 -465,300 -613,454c-149,155 -241,316 -289,508c-19,75 -22,114 -22,273c0,198 13,295 60,457c30,104 105,266 163,352c149,219 373,369 624,417c98,19 279,11 382,-15z" fill="#ff7f00" id="svg_3"/>
   <path d="m11211,-5857c-5,-38 -13,-90 -16,-118c-38,-309 -155,-685 -311,-999c-161,-321 -342,-575 -603,-840c-304,-310 -641,-543 -1036,-716c-27,-12 -63,-27 -80,-34c-16,-8 -52,-21 -80,-31c-27,-9 -59,-21 -70,-25c-123,-48 -339,-104 -530,-135c-213,-36 -259,-39 -555,-39c-296,0 -342,3 -555,39c-577,95 -1113,345 -1575,733c-125,104 -344,330 -449,462c-154,193 -288,407 -392,626c-77,162 -72,152 -112,259c-100,266 -159,511 -194,805l-8,65l-2266,3l-2267,2l-6,-42c-12,-90 -18,-1306 -7,-1558c27,-638 82,-1226 132,-1424c53,-207 118,-270 329,-315l94,-21l5426,0l5425,0l150,31c617,125 965,290 1019,482c34,119 77,766 96,1427c6,184 15,470 20,635c5,165 10,411 10,548l0,247l-789,0l-789,0l-11,-67z" fill="#ff7f00" id="svg_4"/>
  </g>
 </g>
</svg>