<?xml version="1.0"?>
<svg width="50" height="50" xmlns="http://www.w3.org/2000/svg" xmlns:svg="http://www.w3.org/2000/svg">
 <g class="layer">
  <title>Layer 1</title>
  <path d="m17.79,46.84c0.71,-0.31 1.21,-1.02 1.21,-1.84l0,-5.4c0,-0.2 0.02,-0.4 0.04,-0.61c-0.01,0 -0.03,0.01 -0.04,0.01c0,0 -3,0 -3.6,0c-1.5,0 -2.8,-0.6 -3.4,-1.8c-0.7,-1.3 -1,-3.5 -2.8,-4.7c-0.3,-0.2 -0.1,-0.5 0.5,-0.5c0.6,0.1 1.9,0.9 2.7,2c0.9,1.1 1.8,2 3.4,2c2.49,0 3.82,-0.12 4.62,-0.55c0.94,-1.39 2.23,-2.45 3.58,-2.45l0,-0.02c-5.67,-0.19 -9.29,-2.07 -10.97,-4.98c-3.67,0.04 -6.86,0.41 -8.68,0.71c-0.06,-0.33 -0.11,-0.66 -0.15,-0.99c1.79,-0.3 4.84,-0.65 8.34,-0.71c-0.11,-0.28 -0.21,-0.56 -0.29,-0.85c-3.51,-0.18 -6.54,-0.04 -8.19,0.09c-0.02,-0.33 -0.04,-0.66 -0.05,-0.99c1.65,-0.14 4.6,-0.27 8.02,-0.12c-0.08,-0.5 -0.13,-1.01 -0.13,-1.54c0,-1.7 0.6,-3.5 1.7,-5c-0.5,-1.7 -1.2,-5.3 0.2,-6.6c2.7,0 4.6,1.3 5.5,2.1c1.7,-0.7 3.6,-1.1 5.7,-1.1s4,0.4 5.6,1.1c0.9,-0.8 4,-3.5 5.5,-2.1c1.5,1.4 0.7,5 0.2,6.6c1.1,1.5 1.7,3.2 1.6,5c0,0.48 -0.04,0.95 -0.11,1.41c3.5,-0.17 6.53,-0.03 8.2,0.1c0,0.34 -0.03,0.67 -0.05,1c-1.67,-0.14 -4.77,-0.28 -8.36,-0.09c-0.08,0.34 -0.19,0.66 -0.32,0.98c3.54,0.05 6.66,0.39 8.55,0.69c-0.05,0.33 -0.1,0.66 -0.15,0.99c-1.92,-0.31 -5.18,-0.67 -8.88,-0.68c-1.67,2.87 -5.22,4.75 -10.78,4.97l0,0.03c2.6,0 5,3.9 5,6.6l0,5.4c0,0.82 0.5,1.53 1.21,1.84c9.16,-3.04 15.79,-11.68 15.79,-21.84c0,-12.68 -10.32,-23 -23,-23s-23,10.32 -23,23c0,10.16 6.63,18.8 15.79,21.84z" fill="#ff7f00" id="svg_1"/>
 </g>
</svg>